<?xml version="1.0" encoding="utf-8"?>
<!-- Generator: Adobe Illustrator 27.3.1, SVG Export Plug-In . SVG Version: 6.00 Build 0)  -->
<svg version="1.1" id="Layer_1" xmlns="http://www.w3.org/2000/svg" xmlns:xlink="http://www.w3.org/1999/xlink" x="0px" y="0px"
	 viewBox="0 0 512 512" style="enable-background:new 0 0 512 512;" xml:space="preserve">
<style type="text/css">
	.st0{fill-rule:evenodd;clip-rule:evenodd;fill:#1D30BC;stroke:#000000;stroke-miterlimit:10;}
</style>
<g>
	<path class="st0" d="M248.5-0.5c5,0,10,0,15,0c21.3,10.2,26.5,25.8,15.5,47c-3.8,4.6-8.5,7.9-14,10c-0.5,6-0.7,12-0.5,18
		c18.3-0.2,36.7,0,55,0.5c25.8,1.2,42.8,14.1,51,38.5c34.5,9.8,47.4,32.1,38.5,67c-7.1,15.6-18.9,25.6-35.5,30
		c-1.8,13-6.7,24.6-14.5,35c-9.5,9.5-21,15-34.5,16.5c-45.7,0.7-91.3,0.7-137,0c-30.3-4.5-46.6-22-49-52.5
		c-25-5.9-38.4-21.7-40-47.5c2.2-26.4,16.2-42.9,42-49.5c7.4-21.4,22.4-33.9,45-37.5c20.3-0.5,40.7-0.7,61-0.5c0.2-6,0-12-0.5-18
		c-15.3-6.6-21.7-18.3-19-35C230.4,10.3,237.5,3,248.5-0.5z M251.5,18.5c11.7-0.5,16.2,4.8,13.5,16c-4.2,5.1-9.4,6.3-15.5,3.5
		C242.5,30.7,243.2,24.2,251.5,18.5z M187.5,93.5c45.7-0.2,91.3,0,137,0.5c17.4,3.4,27.2,13.9,29.5,31.5c0.7,28.7,0.7,57.3,0,86
		c-2.4,18.1-12.6,28.6-30.5,31.5c-45,0.7-90,0.7-135,0c-19-2.6-29.5-13.5-31.5-32.5c-0.7-28.3-0.7-56.7,0-85
		C159.6,107.4,169.7,96.8,187.5,93.5z M202.5,131.5c9.8-0.7,16.3,3.7,19.5,13c1.6,10.3-2.6,17.2-12.5,20.5
		c-16.4-0.3-22.6-8.4-18.5-24.5C194,136.4,197.9,133.4,202.5,131.5z M302.5,131.5c11.6-0.1,18.2,5.6,20,17c-1.3,10-7,15.7-17,17
		c-15-3-19.8-11.7-14.5-26C294.2,135.7,298,133,302.5,131.5z M372.5,133.5c19,8.4,25.2,22.4,18.5,42c-4.1,7.4-10.1,12.8-18,16
		C372.5,172.2,372.3,152.8,372.5,133.5z M135.5,134.5c1,0,2,0,3,0c0.3,19,0,38-1,57c-12.3-5.3-19.3-14.6-21-28
		C117.7,150.3,124,140.7,135.5,134.5z"/>
</g>
<g>
	<path class="st0" d="M198.5,113.5c30.3-0.6,44.1,14.1,41.5,44c-6.9,19.5-20.7,28-41.5,25.5c-19.1-5.7-28.3-18.6-27.5-38.5
		C173.7,128.3,182.9,118,198.5,113.5z M202.5,131.5c-4.6,1.9-8.5,4.9-11.5,9c-4.1,16.1,2.1,24.2,18.5,24.5
		c9.9-3.3,14.1-10.2,12.5-20.5C218.8,135.2,212.3,130.8,202.5,131.5z"/>
</g>
<g>
	<path class="st0" d="M297.5,113.5c14.8-2.1,27,2.6,36.5,14c10.4,18.5,7.9,35-7.5,49.5c-19.2,10.9-36.1,8.1-50.5-8.5
		c-10-19.2-6.8-35.7,9.5-49.5C289.5,116.9,293.5,115,297.5,113.5z M302.5,131.5c-4.5,1.5-8.3,4.2-11.5,8c-5.3,14.3-0.5,23,14.5,26
		c10-1.3,15.7-7,17-17C320.7,137.1,314.1,131.4,302.5,131.5z"/>
</g>
<g>
	<path class="st0" d="M202.5,206.5c35.3-0.2,70.7,0,106,0.5c7.5,5.2,7.9,10.8,1,17c-35.7,0.7-71.3,0.7-107,0
		C194.6,218.2,194.6,212.3,202.5,206.5z"/>
</g>
<g>
	<path class="st0" d="M270.5,511.5c-10,0-20,0-30,0c-49.8-9.3-81.6-38.3-95.5-87c-1.8-8.2-2.8-16.6-3-25c-0.5-36-0.7-72-0.5-108
		c-4.6-0.8-9.3-1.5-14-2c-3.4,11.1-10.7,18.1-22,21c-0.3,21.7,0,43.3,1,65c11.8,4,19.3,12,22.5,24c1.4,8.3,1.7,16.6,1,25
		c-1.6,6.7-5.8,9.2-12.5,7.5c-1.8-0.8-3.3-2-4.5-3.5c-1.2-8.3-1.9-16.6-2-25c-5-10.6-12.9-13.4-23.5-8.5c-2.2,1.5-4,3.3-5.5,5.5
		c-1.2,7.9-1.9,15.9-2,24c-1.6,6.7-5.8,9.2-12.5,7.5c-2.9-1.3-4.8-3.4-5.5-6.5c-1.3-10.9-0.3-21.6,3-32c4.5-8.7,11.3-14.7,20.5-18
		c1.2-21.3,1.3-42.7,0.5-64c-20.7-8.8-28.1-24.2-22-46c9.1-18.3,23.6-24.8,43.5-19.5c10.8,4.8,18.1,12.8,22,24c7.2,2,14.6,3.7,22,5
		c69.3,0.7,138.7,0.7,208,0c7.7-1.6,15.3-3.1,23-4.5c2.9-12.1,10.2-20.2,22-24.5c26.3-4.4,41.3,6.6,45,33
		c-1.2,16.3-9.5,26.8-25,31.5c-0.3,21.7,0,43.3,1,65c13.8,5.3,21.6,15.3,23.5,30c0.9,7.7,0.5,15.4-1,23c-5.3,5.3-10.7,5.3-16,0
		c-1.2-8.3-1.9-16.6-2-25c-3.7-8.6-10.2-12.1-19.5-10.5c-5.2,1.8-8.7,5.3-10.5,10.5c-0.3,7-0.7,14-1,21c-1.6,6.7-5.8,9.2-12.5,7.5
		c-2.9-1.3-4.8-3.4-5.5-6.5c-1-10.1-0.3-20.1,2-30c4.1-10,11.3-16.6,21.5-20c1-21.7,1.3-43.3,1-65c-10.9-3.1-18.6-9.9-23-20.5
		c-4.6,0.3-9.3,0.8-14,1.5c0.2,40.3,0,80.7-0.5,121C357.8,467.6,325.3,500.6,270.5,511.5z M92.5,262.5c16.5,1.1,22,9.4,16.5,25
		c-6.6,7.2-14.1,8.4-22.5,3.5c-6.5-6.3-7.7-13.4-3.5-21.5C85.5,266.1,88.7,263.8,92.5,262.5z M410.5,262.5c14.1-0.7,20.6,6,19.5,20
		c-2.2,6.9-6.9,10.9-14,12c-14.5-2.8-19.2-11.2-14-25C404.4,266.6,407.2,264.2,410.5,262.5z M160.5,293.5c63.3,0,126.7,0,190,0
		c0.2,38.3,0,76.7-0.5,115c-1,7.9-2.9,15.5-5.5,23c-59.3,1.3-118.7,1.3-178,0c-2.9-7.4-4.7-15.1-5.5-23
		C160.5,370.2,160.3,331.8,160.5,293.5z M176.5,451.5c52.5-1.2,105.2-1.3,158-0.5c-26.3,35.9-61.3,48.9-105,39
		C207.4,483,189.7,470.2,176.5,451.5z"/>
</g>
<g>
	<path class="st0" d="M276.5,304.5c9.3-0.5,13.1,3.8,11.5,13c-10.5,11.2-21,22.3-31.5,33.5c9,0.3,18,0.7,27,1
		c5.2,2.6,7.1,6.8,5.5,12.5c-16.2,18.2-32.3,36.3-48.5,54.5c-5.5,3.3-10.3,2.4-14.5-2.5c-0.7-3-0.7-6,0-9
		c11.2-12.5,22.3-25,33.5-37.5c-10-0.3-20-0.7-30-1c-5.2-4.1-6.1-9-2.5-14.5C243,337.3,259.5,320.6,276.5,304.5z"/>
</g>
</svg>
